<svg width="39" height="41" viewBox="0 0 39 41" fill="none" xmlns="http://www.w3.org/2000/svg">
<circle cx="17.5" cy="35.5" r="4.75" stroke="white" stroke-width="1.5"/>
<circle cx="17.5" cy="35.5" r="1.5" fill="white"/>
<line x1="17.6089" y1="36.5829" x2="2.3089" y2="0.291354" stroke="white" stroke-width="1.5"/>
<line x1="17.6139" y1="35.1049" x2="36.1499" y2="27.5938" stroke="white" stroke-width="1.5"/>
<line x1="6" y1="8.75" y2="8.75" stroke="white" stroke-width="1.5"/>
<mask id="path-6-inside-1_31822_35" fill="white">
<path d="M10.5 9.5L20.6342 5.22236L24.9118 15.3566L14.7776 19.6342L10.5 9.5Z"/>
</mask>
<path d="M10.5 9.5L9.91669 8.11807L8.53475 8.70138L9.11807 10.0833L10.5 9.5ZM20.6342 5.22236L22.0161 4.63905L21.4328 3.25711L20.0509 3.84043L20.6342 5.22236ZM24.9118 15.3566L25.4951 16.7385L26.8771 16.1552L26.2938 14.7732L24.9118 15.3566ZM14.7776 19.6342L13.3957 20.2175L13.979 21.5994L15.361 21.0161L14.7776 19.6342ZM11.0833 10.8819L21.2175 6.6043L20.0509 3.84043L9.91669 8.11807L11.0833 10.8819ZM19.2523 5.80568L23.5299 15.9399L26.2938 14.7732L22.0161 4.63905L19.2523 5.80568ZM24.3285 13.9746L14.1943 18.2523L15.361 21.0161L25.4951 16.7385L24.3285 13.9746ZM16.1596 19.0509L11.8819 8.91669L9.11807 10.0833L13.3957 20.2175L16.1596 19.0509Z" fill="white" mask="url(#path-6-inside-1_31822_35)"/>
<path d="M18 27L16 22L33 15L37 24L23 29.5" stroke="white" stroke-width="1.5"/>
</svg>
