<svg width="70" height="65" viewBox="0 0 70 65" fill="none" xmlns="http://www.w3.org/2000/svg">
<path d="M35 15.9416L36.2255 19.7133L36.3602 20.1279H36.7961H40.7618L37.5535 22.4589L37.2008 22.7151L37.3355 23.1297L38.561 26.9013L35.3527 24.5703L35 24.3141L34.6473 24.5703L31.439 26.9013L32.6645 23.1297L32.7992 22.7151L32.4465 22.4589L29.2382 20.1279H33.2039H33.6398L33.7745 19.7133L35 15.9416Z" stroke="#DE0000" stroke-width="1.2"/>
<path d="M54.0105 12C54.3211 10.1909 54.549 8.49866 54.7011 7H14.2011C14.3792 8.49201 14.6401 10.1852 14.9899 12M54.0105 12H61.7011C62.3648 17.5 60.7931 28.5 49.1966 28.5M54.0105 12C53.1273 17.1441 51.5752 23.2327 49.1966 28.5M49.1966 28.5C45.9928 35.5948 41.2894 41.1996 34.7011 41C33.4724 40.9628 32.3064 40.7346 31.201 40.3425M14.9899 12H8.20105C7.38105 17.5 8.63703 28.5 20.221 28.5M14.9899 12C15.9777 17.1257 17.6749 23.2222 20.221 28.5M20.221 28.5C22.8926 34.0378 26.4988 38.6743 31.201 40.3425M31.201 40.3425V46.5L23.701 52.5H46.701L38.201 46.5V41" stroke="#DE0000" stroke-width="1.5"/>
<rect x="18.75" y="52.75" width="32.5" height="9.5" stroke="#DE0000" stroke-width="1.5"/>
</svg>
