<svg width="70" height="65" viewBox="0 0 70 65" fill="none" xmlns="http://www.w3.org/2000/svg">
<path d="M6.77912 18.8721L15.5 10.5C17.8299 8.26337 20.5414 12.1243 21.5627 15.1883L22.1069 16.8206C22.7001 18.6003 23.478 20.3234 24.6059 21.8225C26.794 24.7307 29.7506 27.6864 31 25.5C31.507 24.6128 32.0609 23.9699 32.6075 23.5108C34.1972 22.1758 36.3531 23.1635 37.9917 24.438C39.3187 25.4701 40.4391 26.7431 41.2943 28.1904L46.5 37C47.1667 38.5 50.4 41.9 58 43.5C64.3064 44.8277 66.6881 47.1652 67.3161 48.6843C67.5304 49.2026 67.5463 49.778 67.6385 50.3313C68.1792 53.5749 66.6839 56.2104 63.4509 56.8117C57.2547 57.9641 47.273 59.1932 44.5 58.5C41.0992 57.6498 38.3123 55.9997 35.8157 54.3996C33.2896 52.7807 30.8363 51.0497 28.5183 49.1448C18.7938 41.1535 4.06258 28.9168 3.00001 27.5C0.919957 24.7266 4.27824 21.2729 6.77912 18.8721Z" stroke="#DE0000" stroke-width="2"/>
<path d="M4.5 21.5L35.4204 47.267C36.8032 48.4193 38.3004 49.4269 39.8885 50.2739V50.2739C43.256 52.0698 46.9716 53.1507 50.7879 53.1679C56.9374 53.1955 64.5599 52.7641 67.5 51" stroke="#DE0000" stroke-width="2"/>
<path d="M13.5 12.5L18.363 21.8787C19.7851 24.6212 21.4204 27.2494 23.391 29.6285C27.1276 34.1401 32.5248 40.0537 36.5 42.5C37.6658 43.2174 38.7362 43.8645 39.7065 44.4423C43.8303 46.898 48.3883 48.582 53.1857 48.7276C56.9923 48.8432 61.5971 48.6007 66 47.5" stroke="#DE0000" stroke-width="2"/>
<path d="M10.5 15.5C12.3333 17.3333 15.8 22.8 15 30M30.5 26.5C33.1667 32 40.8 42.5 50 40.5" stroke="#DE0000" stroke-width="2"/>
<path d="M30.5 26C32.3333 26.5 36.6 27.1 39 25.5M41.5 28.5L38 29M43.5 31.5L39 32M45 34.5L41 35" stroke="#DE0000" stroke-width="1.5"/>
</svg>
