<svg width="46" height="69" viewBox="0 0 46 69" fill="none" xmlns="http://www.w3.org/2000/svg">
<path d="M11.5023 69C17.849 69 23 63.848 23 57.5V46H11.5023C5.15555 46 0.00457764 51.152 0.00457764 57.5C0.00457764 63.848 5.15555 69 11.5023 69Z" fill="#0ACF83"/>
<path d="M0.00457764 34.5C0.00457764 28.152 5.15555 23 11.5023 23H23V46H11.5023C5.15555 46 0.00457764 40.848 0.00457764 34.5Z" fill="#A259FF"/>
<path d="M0.00463867 11.5C0.00463867 5.152 5.15561 0 11.5023 0H23V23H11.5023C5.15561 23 0.00463867 17.848 0.00463867 11.5Z" fill="#F24E1E"/>
<path d="M23 0H34.4977C40.8444 0 45.9954 5.152 45.9954 11.5C45.9954 17.848 40.8444 23 34.4977 23H23V0Z" fill="#FF7262"/>
<path d="M45.9954 34.5C45.9954 40.848 40.8444 46 34.4977 46C28.151 46 23 40.848 23 34.5C23 28.152 28.151 23 34.4977 23C40.8444 23 45.9954 28.152 45.9954 34.5Z" fill="#1ABCFE"/>
</svg>
