<svg width="93" height="39" viewBox="0 0 93 39" fill="none" xmlns="http://www.w3.org/2000/svg">
<path d="M55.5762 13.4345C53.5429 13.4345 52.0288 14.4265 52.0288 16.8142C52.0288 18.6131 53.0267 19.8621 55.4665 19.8621C57.5347 19.8621 58.9395 18.651 58.9395 16.7394C58.9395 14.5734 57.6825 13.4345 55.5762 13.4345V13.4345ZM51.5111 30.2937C51.0298 30.8803 50.5502 31.5042 50.5502 32.2395C50.5502 33.7077 52.4342 34.1496 55.0222 34.1496C57.1656 34.1496 60.0856 34.0001 60.0856 32.0197C60.0856 30.8424 58.6808 30.7699 56.9058 30.6594L51.5111 30.2937V30.2937ZM62.4506 13.5453C63.1147 14.39 63.818 15.5658 63.818 17.255C63.818 21.3314 60.6026 23.7184 55.9468 23.7184C54.7628 23.7184 53.6912 23.5718 53.0267 23.3884L51.8064 25.3342L55.428 25.5544C61.8225 25.9595 65.5908 26.1436 65.5908 31.0262C65.5908 35.2507 61.8592 37.6365 55.428 37.6365C48.7389 37.6365 46.1887 35.947 46.1887 33.046C46.1887 31.3933 46.9279 30.5136 48.2216 29.2995C47.0017 28.7872 46.5955 27.8696 46.5955 26.8772C46.5955 26.0685 47.0017 25.3346 47.6679 24.6361C48.3327 23.9393 49.0717 23.2408 49.9588 22.4328C48.1482 21.5513 46.7801 19.6416 46.7801 16.9232C46.7801 12.7005 49.5893 9.80023 55.2427 9.80023C56.8324 9.80023 57.7937 9.94535 58.6438 10.1674H65.8513V13.2879L62.4506 13.5453V13.5453ZM72.3533 6.8714C70.2462 6.8714 69.0267 5.65842 69.0267 3.56424C69.0267 1.47294 70.2459 0.333252 72.3533 0.333252C74.4966 0.333252 75.7165 1.47294 75.7165 3.56424C75.7165 5.65842 74.497 6.8714 72.3533 6.8714ZM67.5848 28.9421V26.0422L69.4703 25.7859C69.988 25.7118 70.0613 25.6021 70.0613 25.0501V14.2525C70.0613 13.8496 69.9509 13.5911 69.58 13.4821L67.5848 12.7836L67.991 9.80961H75.6421V25.0501C75.6421 25.6386 75.6777 25.7118 76.2339 25.7862L78.1186 26.0425V28.9421H67.5848V28.9421ZM92.7337 27.5183C91.144 28.2891 88.8157 28.9869 86.7083 28.9869C82.3105 28.9869 80.6481 27.2259 80.6481 23.0736V13.4525C80.6481 13.2323 80.6481 13.0854 80.3513 13.0854H77.7647V9.81575C81.0179 9.44752 82.3105 7.83167 82.717 3.82849H86.2285V9.045C86.2285 9.30132 86.2285 9.41215 86.5245 9.41215H91.7351V13.0846H86.2285V21.8617C86.2285 24.0285 86.7465 24.8725 88.7413 24.8725C89.7773 24.8725 90.8479 24.6162 91.7347 24.2855L92.7337 27.5179" fill="#2F2707"/>
<path d="M37.9734 17.8805L21.075 1.08914C20.8436 0.859098 20.5689 0.676613 20.2664 0.55211C19.964 0.427607 19.6399 0.363525 19.3126 0.363525C18.9852 0.363525 18.6611 0.427607 18.3587 0.55211C18.0563 0.676613 17.7815 0.859098 17.5501 1.08914L14.0412 4.57644L18.4925 8.99947C19.0157 8.82264 19.5783 8.79496 20.1165 8.91957C20.6548 9.04418 21.1471 9.31609 21.5379 9.70451C21.9307 10.0954 22.2049 10.5881 22.3293 11.1265C22.4537 11.6649 22.4231 12.2272 22.2412 12.7492L26.5304 17.0123C27.5683 16.6571 28.7661 16.887 29.5947 17.7119C29.8702 17.9855 30.0888 18.3104 30.2379 18.668C30.387 19.0255 30.4637 19.4088 30.4637 19.7958C30.4637 20.1829 30.387 20.5661 30.2379 20.9237C30.0888 21.2813 29.8702 21.6061 29.5947 21.8797C29.11 22.3619 28.4721 22.6621 27.7897 22.7295C27.1073 22.7969 26.4224 22.6271 25.8518 22.2492C25.2811 21.8712 24.8599 21.3084 24.6598 20.6566C24.4597 20.0047 24.4931 19.3041 24.7543 18.674L20.7539 14.6986L20.7535 25.1605C21.0435 25.303 21.3084 25.4913 21.5379 25.7179C21.8133 25.9916 22.0319 26.3165 22.1809 26.6742C22.33 27.0318 22.4068 27.4151 22.4068 27.8022C22.4068 28.1893 22.33 28.5726 22.1809 28.9302C22.0319 29.2878 21.8133 29.6128 21.5379 29.8864C20.379 31.038 18.5008 31.038 17.3438 29.8864C16.9981 29.5432 16.7431 29.1204 16.6016 28.6556C16.46 28.1908 16.4361 27.6985 16.5322 27.2223C16.6283 26.7462 16.8412 26.301 17.1522 25.9264C17.4631 25.5518 17.8624 25.2593 18.3145 25.075V14.5156C17.9508 14.368 17.6207 14.1492 17.3438 13.8723C16.4661 13.0012 16.255 11.7214 16.7048 10.6503L12.3171 6.28941L0.730562 17.8026C0.499033 18.0326 0.315374 18.3057 0.190071 18.6064C0.0647675 18.907 0.000274658 19.2291 0.000274658 19.5545C0.000274658 19.8799 0.0647675 20.2021 0.190071 20.5027C0.315374 20.8033 0.499033 21.0764 0.730562 21.3065L17.629 38.0982C18.0964 38.5626 18.7304 38.8235 19.3914 38.8235C20.0524 38.8235 20.6864 38.5626 21.1539 38.0982L37.9734 21.3848C38.4409 20.92 38.7034 20.2898 38.7034 19.6327C38.7034 18.9755 38.4409 18.3453 37.9734 17.8805" fill="#DE4C36"/>
</svg>
