<svg width="64" height="62" viewBox="0 0 64 62" fill="none" xmlns="http://www.w3.org/2000/svg">
<g clip-path="url(#clip0_63325_23)">
<path d="M11.3333 0.00634766H52.6667C58.9333 0.00634766 64 5.0395 64 11.2647V50.7353C64 56.9605 58.9333 61.9936 52.6667 61.9936H11.3333C5.06667 61.9936 0 56.9605 0 50.7353V11.2647C0 5.0395 5.06667 0.00634766 11.3333 0.00634766Z" fill="#330000"/>
<path d="M30.9333 37.0928H21.0133L18.9867 43.318C18.9333 43.5565 18.72 43.7154 18.48 43.6889H13.4667C13.1733 43.6889 13.0933 43.53 13.1733 43.2121L21.76 18.6556C21.84 18.3907 21.92 18.0993 22.0267 17.7814C22.1333 17.2251 22.1867 16.6423 22.1867 16.0595C22.16 15.9271 22.2667 15.7946 22.4 15.7681H29.3067C29.52 15.7681 29.6267 15.8476 29.6533 15.9801L39.3867 43.2651C39.4667 43.5565 39.3867 43.6889 39.12 43.6889H33.5467C33.36 43.7154 33.1733 43.5829 33.12 43.3975L30.9333 37.0928ZM22.56 31.7153H29.3333C29.1733 31.159 28.96 30.4967 28.72 29.808C28.48 29.0928 28.24 28.3245 28 27.5298C27.7333 26.7086 27.4933 25.9139 27.2267 25.0927C26.96 24.2715 26.72 23.5033 26.5067 22.7351C26.2933 21.9934 26.1067 21.3046 25.92 20.6688H25.8667C25.6267 21.8079 25.3333 22.947 24.96 24.0861C24.56 25.3576 24.16 26.6821 23.7333 28.0067C23.36 29.3577 22.96 30.6027 22.56 31.7153ZM45.3333 20.4039C44.4533 20.4304 43.6 20.0861 42.96 19.4768C42.3467 18.8145 42.0267 17.9403 42.0533 17.0397C42.0267 16.139 42.3733 15.2913 43.0133 14.682C43.6533 14.0728 44.5067 13.7549 45.3867 13.7549C46.4267 13.7549 47.2267 14.0728 47.8133 14.682C48.4 15.3178 48.72 16.1655 48.6933 17.0397C48.72 17.9403 48.4 18.8145 47.76 19.4768C47.1467 20.1126 46.24 20.4569 45.3333 20.4039ZM42.3467 43.3975V23C42.3467 22.7351 42.4533 22.6291 42.6933 22.6291H47.9733C48.2133 22.6291 48.32 22.7616 48.32 23V43.3975C48.32 43.6889 48.2133 43.8214 47.9733 43.8214H42.7467C42.48 43.8214 42.3467 43.6624 42.3467 43.3975V43.3975Z" fill="#FF9A00"/>
</g>
<defs>
<clipPath id="clip0_63325_23">
<rect width="64" height="62" fill="white"/>
</clipPath>
</defs>
</svg>
