<svg width="64" height="62" viewBox="0 0 64 62" fill="none" xmlns="http://www.w3.org/2000/svg">
<g clip-path="url(#clip0_63325_27)">
<path d="M11.3333 0.00634766H52.6666C58.9333 0.00634766 63.9999 5.0395 63.9999 11.2647V50.7352C63.9999 56.9604 58.9333 61.9936 52.6666 61.9936H11.3333C5.06663 61.9936 -3.8147e-05 56.9604 -3.8147e-05 50.7352V11.2647C-3.8147e-05 5.0395 5.06663 0.00634766 11.3333 0.00634766Z" fill="#001E36"/>
<path d="M14.4 43.477V16.2185C14.4 16.0331 14.48 15.9271 14.6667 15.9271C15.12 15.9271 15.5467 15.9271 16.16 15.9006C16.8 15.8741 17.4667 15.8741 18.1867 15.8477C18.9067 15.8212 19.68 15.8212 20.5067 15.7947C21.3333 15.7682 22.1333 15.7682 22.9333 15.7682C25.12 15.7682 26.9334 16.0331 28.4267 16.5894C29.76 17.0397 30.9867 17.7814 32 18.7616C32.8534 19.6093 33.52 20.6424 33.9467 21.7815C34.3467 22.8941 34.56 24.0331 34.56 25.2252C34.56 27.5034 34.0267 29.3842 32.96 30.8676C31.8934 32.3511 30.4 33.4637 28.6667 34.0994C26.8534 34.7617 24.8534 35.0001 22.6667 35.0001C22.0267 35.0001 21.6 35.0001 21.3333 34.9736C21.0667 34.9471 20.6933 34.9471 20.1867 34.9471V43.4505C20.2133 43.6359 20.08 43.7949 19.8933 43.8213H14.72C14.5067 43.8213 14.4 43.7154 14.4 43.477ZM20.2133 21.0397V29.9405C20.5867 29.967 20.9333 29.9934 21.2533 29.9934H22.6667C23.7067 29.9934 24.7467 29.8345 25.7334 29.5166C26.5867 29.2782 27.3334 28.7749 27.92 28.1126C28.48 27.4504 28.7467 26.5497 28.7467 25.3841C28.7734 24.5629 28.56 23.7418 28.1334 23.0265C27.68 22.3378 27.04 21.808 26.2667 21.5166C25.28 21.1192 24.2133 20.9603 23.12 20.9868C22.4267 20.9868 21.8133 20.9868 21.3067 21.0133C20.7733 20.9868 20.4 21.0133 20.2133 21.0397V21.0397ZM51.2001 28.3246C50.4001 27.9007 49.5467 27.6093 48.6401 27.4239C47.6534 27.212 46.6667 27.0795 45.6534 27.0795C45.1201 27.053 44.56 27.1325 44.0534 27.265C43.7067 27.3444 43.4134 27.5299 43.2267 27.7948C43.0934 28.0067 43.0134 28.2716 43.0134 28.51C43.0134 28.7484 43.12 28.9868 43.28 29.1987C43.52 29.4901 43.84 29.7285 44.1867 29.914C44.8 30.2319 45.4401 30.5233 46.0801 30.7882C47.5201 31.265 48.9067 31.9272 50.1867 32.7219C51.0667 33.2782 51.7867 34.02 52.2934 34.9206C52.7201 35.7683 52.9334 36.6955 52.9067 37.6491C52.9334 38.8942 52.5601 40.1392 51.8667 41.1723C51.1201 42.2319 50.0801 43.0531 48.8801 43.53C47.5734 44.0863 45.9734 44.3776 44.0534 44.3776C42.8267 44.3776 41.6267 44.2717 40.4267 44.0333C39.4934 43.8743 38.56 43.5829 37.7067 43.1856C37.52 43.0796 37.3867 42.8942 37.4134 42.6823V38.073C37.4134 37.9935 37.44 37.8875 37.52 37.8346C37.6 37.7816 37.68 37.8081 37.76 37.861C38.8 38.4703 39.8934 38.8942 41.0667 39.1591C42.08 39.424 43.1467 39.5564 44.2134 39.5564C45.2267 39.5564 45.9467 39.424 46.4267 39.1856C46.8534 39.0001 47.1467 38.5498 47.1467 38.073C47.1467 37.7021 46.9334 37.3577 46.5067 37.0134C46.0801 36.669 45.2001 36.2716 43.8934 35.7683C42.5334 35.2915 41.28 34.6557 40.1067 33.861C39.28 33.2782 38.5867 32.51 38.08 31.6094C37.6534 30.7617 37.44 29.8345 37.4667 28.9073C37.4667 27.7683 37.7867 26.6822 38.3734 25.702C39.04 24.6424 40.0267 23.7947 41.1734 23.2649C42.4267 22.6292 44.0001 22.3378 45.8934 22.3378C46.9867 22.3378 48.1067 22.4172 49.2001 22.5762C50.0001 22.6821 50.7734 22.8941 51.4934 23.1855C51.6001 23.2119 51.7067 23.3179 51.7601 23.4239C51.7867 23.5298 51.8134 23.6358 51.8134 23.7417V28.0597C51.8134 28.1656 51.7601 28.2716 51.6801 28.3246C51.4401 28.3775 51.3067 28.3775 51.2001 28.3246V28.3246Z" fill="#31A8FF"/>
</g>
<defs>
<clipPath id="clip0_63325_27">
<rect width="64" height="62" fill="white"/>
</clipPath>
</defs>
</svg>
